<svg width="201" height="40" viewBox="0 0 201 40" fill="none" xmlns="http://www.w3.org/2000/svg">
<mask id="mask0_1_16" style="mask-type:luminance" maskUnits="userSpaceOnUse" x="0" y="0" width="40" height="40">
<path d="M40 0H0V39.7091H40V0Z" fill="white"/>
</mask>
<g mask="url(#mask0_1_16)">
<path d="M34.624 39.7091C33.1865 39.7091 31.8346 39.1478 30.8181 38.1313C29.8015 37.1147 29.2402 35.7628 29.2402 34.3253C29.2402 32.8878 29.7981 31.5359 30.8146 30.5228C31.8311 29.5063 33.1831 28.945 34.624 28.945C36.0615 28.945 37.4134 29.5029 38.4299 30.5194C40.528 32.6174 40.528 36.0332 38.4299 38.1347C37.41 39.1512 36.0581 39.7091 34.624 39.7091Z" fill="url(#paint0_linear_1_16)"/>
<path d="M5.38376 11.0139C3.94626 11.0139 2.59434 10.4526 1.5744 9.43612C0.561307 8.41961 0 7.06768 0 5.63018C0 4.19269 0.557885 2.84076 1.5744 1.82767C2.59091 0.811155 3.94626 0.249847 5.38376 0.249847C6.82125 0.249847 8.17318 0.807732 9.18628 1.82425C10.2028 2.84076 10.7641 4.19269 10.7641 5.63018C10.7641 7.06768 10.2028 8.41961 9.18628 9.43612C8.17318 10.4526 6.82125 11.0139 5.38376 11.0139Z" fill="url(#paint1_linear_1_16)"/>
<path d="M34.3799 10.8565C32.9424 10.8565 31.5905 10.2952 30.574 9.27869C28.4759 7.18063 28.4759 3.76487 30.5705 1.66681C31.5871 0.650297 32.939 0.0889893 34.3799 0.0889893C35.8174 0.0889893 37.1693 0.650297 38.1858 1.66681C40.2839 3.76487 40.2839 7.18063 38.1858 9.28211C37.1693 10.2952 35.8174 10.8565 34.3799 10.8565Z" fill="url(#paint2_linear_1_16)"/>
<path d="M5.52438 39.7091C4.08689 39.7091 2.73496 39.1478 1.71502 38.1313C0.69851 37.1147 0.140625 35.7628 0.140625 34.3253C0.140625 32.8878 0.701932 31.5359 1.71845 30.5194C1.93065 30.3038 2.17023 30.1087 2.47484 29.9033C2.56725 29.8383 2.65282 29.7869 2.73838 29.7356C2.93689 29.6227 3.13541 29.5166 3.32023 29.431C3.41948 29.3865 3.52558 29.3386 3.63511 29.2975C3.83019 29.2256 4.04582 29.1606 4.29225 29.1024C4.34016 29.0887 4.38466 29.0785 4.42915 29.0648C4.45653 29.0579 4.48391 29.0477 4.51129 29.0408L5.70921 28.9587C5.8598 28.9655 6.02409 28.9861 6.19864 29.0066L6.26709 29.0169C6.30816 29.0203 6.36292 29.0271 6.41768 29.0305L6.4656 29.034L6.52036 29.0442H6.56828C6.65727 29.0477 6.74283 29.0477 6.8284 29.0477C8.89223 29.0477 10.9321 28.1681 12.4209 26.6347C13.9029 25.1082 14.7209 23.0547 14.6627 21.0011V20.9395L14.6525 20.8745C14.6422 20.8163 14.6388 20.7581 14.6354 20.6999C14.6319 20.6315 14.6251 20.563 14.6148 20.4946L14.6011 20.3748C14.5909 20.2721 14.5772 20.1694 14.5703 20.0667L14.6627 18.8654C14.6696 18.8346 14.6799 18.8072 14.6867 18.7798L14.7072 18.7045C14.762 18.4752 14.8202 18.2493 14.9092 18.0269C14.9537 17.9002 14.9947 17.8078 15.0427 17.712C15.1385 17.5032 15.2377 17.3115 15.3541 17.1165C15.4054 17.0309 15.4534 16.9453 15.5115 16.8632C15.7306 16.5449 15.9257 16.3053 16.131 16.0999C17.1476 15.0834 18.4995 14.5255 19.9404 14.5255C21.3779 14.5255 22.7298 15.0834 23.7498 16.0999C25.8444 18.198 25.8444 21.6138 23.7463 23.7118C23.5341 23.924 23.2946 24.1191 22.9865 24.3279C22.8975 24.3895 22.812 24.4408 22.7264 24.4888C22.5313 24.6051 22.3362 24.7078 22.1446 24.7968C22.0385 24.8447 21.9358 24.8926 21.8331 24.9303C21.6277 25.0056 21.4087 25.0706 21.1794 25.1254L21.0493 25.163C21.0185 25.1698 20.9911 25.1801 20.9638 25.187L19.7556 25.2725C19.6153 25.2657 19.4647 25.2486 19.3072 25.228L19.2011 25.2143C19.1635 25.2075 19.1087 25.2041 19.0505 25.2007L19.0095 25.1972L18.9478 25.187H18.8999C18.8109 25.1835 18.7254 25.1835 18.6364 25.1835C16.5726 25.1835 14.5327 26.0631 13.0439 27.5931C11.5584 29.1195 10.7439 31.1731 10.802 33.2301V33.2917L10.8123 33.3533C10.8226 33.4115 10.826 33.4697 10.8294 33.5279C10.8328 33.5963 10.8397 33.6648 10.85 33.7332C10.8534 33.7743 10.8602 33.8496 10.8705 33.9215C10.8808 34.0036 10.891 34.0823 10.891 34.1679V34.1987L10.8055 35.3521C10.7986 35.3761 10.761 35.5095 10.7507 35.5506C10.6925 35.8005 10.6275 36.0195 10.5522 36.218C10.5111 36.3275 10.4701 36.4234 10.4221 36.5226C10.3297 36.728 10.227 36.9231 10.1107 37.1216C10.0593 37.2037 10.0012 37.2996 9.93955 37.392C9.74104 37.6829 9.54252 37.9259 9.3269 38.1415C8.31381 39.1512 6.96188 39.7091 5.52438 39.7091Z" fill="url(#paint3_linear_1_16)"/>
<path d="M20.0591 39.7091C18.6216 39.7091 17.2662 39.1478 16.2497 38.1313C15.2332 37.1147 14.6753 35.7628 14.6719 34.3253C14.6719 32.8878 15.2298 31.5393 16.2463 30.5228C16.4551 30.314 16.6878 30.1224 17.0095 29.8999C17.0882 29.8451 17.1738 29.7938 17.2662 29.7425C17.4647 29.6227 17.653 29.5234 17.8515 29.4344C17.9576 29.3865 18.0603 29.3386 18.1629 29.3009C18.3614 29.2291 18.5805 29.164 18.8098 29.1127C18.8098 29.1127 18.9981 29.0579 19.022 29.0511L20.2405 28.9621C20.3842 28.9689 20.5382 28.9895 20.7025 29.01L20.7915 29.0203C20.8497 29.0271 20.901 29.0305 20.9524 29.0305C20.9729 29.0305 20.9934 29.0305 21.0105 29.034L21.0482 29.0374L21.0995 29.0408C21.1885 29.0442 21.2775 29.0442 21.3665 29.0442C23.4269 29.0442 25.4634 28.1646 26.9488 26.6347C28.4308 25.1082 29.2488 23.0547 29.1906 21.0011L29.1837 20.7513L29.1598 20.7239C29.1598 20.717 29.1598 20.7068 29.1563 20.6965C29.1529 20.6383 29.1495 20.5801 29.1427 20.5185L29.1221 20.3474C29.1119 20.2516 29.0982 20.1592 29.0947 20.0633L29.1769 18.8996C29.1837 18.8723 29.2248 18.7285 29.2351 18.684C29.3035 18.4068 29.3651 18.2014 29.4336 18.02C29.4712 17.9105 29.5191 17.8112 29.5671 17.7086C29.6526 17.5203 29.7553 17.3287 29.8785 17.1199L29.9025 17.0822C29.9435 17.0104 29.9846 16.9419 30.0325 16.8735C30.2516 16.5517 30.4501 16.3121 30.6554 16.1034C31.672 15.0869 33.0273 14.5255 34.4648 14.5255C35.9023 14.5255 37.2542 15.0834 38.2707 16.0999C40.3688 18.198 40.3688 21.6138 38.2707 23.7152C38.0688 23.9172 37.8258 24.1123 37.5075 24.3313C37.4459 24.3724 37.3877 24.4066 37.3295 24.4443L37.2337 24.5024C37.0523 24.6085 36.8572 24.7112 36.6655 24.8002C36.5594 24.8481 36.4568 24.896 36.3507 24.9337C36.1624 25.0056 35.9536 25.0637 35.6935 25.1288C35.6422 25.1425 35.5977 25.1562 35.5566 25.1664C35.5258 25.1733 35.4984 25.1835 35.4711 25.1904L34.2731 25.2725C34.0986 25.2657 33.9069 25.2383 33.7255 25.2143C33.6639 25.2075 33.616 25.2041 33.5681 25.2007C33.551 25.2007 33.5304 25.2007 33.5133 25.1972L33.4106 25.187C33.3217 25.1835 33.2327 25.1835 33.1437 25.1835C31.0798 25.1835 29.0468 26.0631 27.558 27.5931C26.076 29.1195 25.258 31.1731 25.3196 33.2301V33.2917L25.3299 33.3499C25.3401 33.4115 25.3436 33.4731 25.347 33.5347C25.3504 33.5963 25.3573 33.6613 25.3641 33.7195C25.3675 33.7709 25.3744 33.8359 25.3812 33.8975C25.3915 33.9899 25.4017 34.0789 25.4052 34.1713L25.3162 35.3521C25.3093 35.3795 25.2648 35.5369 25.2648 35.5369C25.2067 35.7868 25.1416 36.0058 25.0663 36.2112C25.0321 36.307 24.9876 36.4028 24.9431 36.4987L24.9294 36.5329C24.8404 36.7246 24.7412 36.9162 24.6282 37.1011C24.5735 37.1935 24.5187 37.2825 24.4605 37.368C24.2483 37.6726 24.0498 37.9191 23.8376 38.1313C22.8416 39.1512 21.4931 39.7091 20.0591 39.7091Z" fill="url(#paint4_linear_1_16)"/>
<path d="M5.52829 25.1801C4.0908 25.1801 2.73887 24.6222 1.72235 23.6057C0.705839 22.5892 0.144531 21.2373 0.144531 19.7964C0.144531 18.3589 0.702416 17.0104 1.71893 15.9938C1.92771 15.7851 2.17071 15.59 2.48217 15.3743C2.56431 15.3196 2.65672 15.2648 2.74571 15.2101C2.93053 15.1005 3.1222 14.9979 3.32413 14.9054C3.42681 14.8575 3.53291 14.8096 3.64243 14.772C3.84095 14.7001 4.05999 14.6351 4.28588 14.5837L4.42279 14.5461C4.44675 14.5392 4.47071 14.529 4.49809 14.5255L5.71653 14.4366C5.87397 14.4434 6.0451 14.4674 6.2265 14.4913L6.26415 14.4947C6.32576 14.5016 6.37367 14.505 6.42501 14.505C6.44213 14.505 6.45924 14.505 6.47635 14.5084L6.52769 14.5187L6.57561 14.5221C6.6646 14.5255 6.75358 14.5255 6.84257 14.5255C8.90298 14.5255 10.9394 13.6494 12.4248 12.116C13.9068 10.5895 14.7248 8.53598 14.6632 6.47899V6.42081L14.653 6.36262C14.6393 6.2976 14.6393 6.23257 14.6358 6.16411C14.6324 6.10935 14.629 6.05459 14.6222 5.99983L14.605 5.83554C14.5914 5.73629 14.5811 5.63703 14.5777 5.53778L14.6598 4.40832L14.6666 4.38094V4.35698C14.6735 4.3296 14.718 4.18242 14.718 4.18242C14.7864 3.8915 14.848 3.68272 14.9165 3.4979C14.9541 3.39523 15.0021 3.29597 15.05 3.18987C15.139 2.9982 15.2416 2.79969 15.358 2.60118L15.3751 2.57038C15.423 2.49166 15.4675 2.41636 15.5189 2.33764C15.7311 2.02961 15.9296 1.7866 16.1315 1.58124C17.148 0.561307 18.5034 0 19.9409 0C21.3784 0 22.7303 0.557885 23.7468 1.5744C25.8449 3.67246 25.8415 7.08822 23.7434 9.18627C23.5346 9.39505 23.2882 9.59699 22.987 9.80234C22.9049 9.86053 22.833 9.9016 22.7611 9.94609L22.72 9.97005C22.5215 10.0864 22.3264 10.1891 22.145 10.2747C22.0355 10.326 21.9363 10.3705 21.8302 10.4081C21.6282 10.4834 21.4126 10.545 21.173 10.6032C21.1217 10.6169 21.0772 10.6306 21.0293 10.6409C21.0019 10.6477 20.9745 10.658 20.9437 10.6648L19.7492 10.747C19.5986 10.7401 19.4378 10.7196 19.2666 10.6991L19.1948 10.6888C19.14 10.682 19.0887 10.6785 19.0407 10.6751C19.0202 10.6751 18.9997 10.6751 18.9826 10.6717L18.9415 10.6683L18.8901 10.6648C18.8012 10.6614 18.7122 10.658 18.6232 10.658C16.5628 10.658 14.5263 11.5376 13.0409 13.0675C11.5589 14.594 10.7409 16.651 10.7991 18.7045V18.7661L10.8128 18.8243C10.8265 18.8859 10.8265 18.9475 10.8333 19.0092C10.8368 19.0708 10.8436 19.1358 10.8504 19.1974C10.8539 19.2487 10.8641 19.3103 10.871 19.3754C10.8812 19.4644 10.8915 19.5533 10.8949 19.6423L10.8094 20.8163C10.8025 20.8471 10.7923 20.8779 10.782 20.9087L10.7512 21.0148C10.693 21.2783 10.628 21.4974 10.5561 21.6891C10.5185 21.7917 10.4671 21.8944 10.4192 22.0039C10.3302 22.1956 10.231 22.3873 10.1146 22.5824C10.0598 22.6748 10.0085 22.7638 9.9503 22.8459C9.72783 23.1676 9.53958 23.4004 9.33081 23.6057C8.31087 24.6188 6.96236 25.1801 5.52829 25.1801Z" fill="url(#paint5_linear_1_16)"/>
</g>
<path d="M57.0926 30.744V12.568H50V8.344H69.3146V12.568H62.2221V30.744H57.0926ZM78.4495 31C76.5068 31 74.7969 30.616 73.3201 29.848C71.8635 29.08 70.7338 28.0346 69.9321 26.712C69.1292 25.368 68.7289 23.8426 68.7289 22.136C68.7289 20.408 69.119 18.8826 69.9004 17.56C70.7022 16.216 71.7889 15.1706 73.1617 14.424C74.5334 13.656 76.085 13.272 77.8163 13.272C79.4831 13.272 80.9826 13.6346 82.3125 14.36C83.6627 15.064 84.7291 16.088 85.5105 17.432C86.2907 18.7546 86.682 20.344 86.682 22.2C86.682 22.392 86.6707 22.616 86.6503 22.872C86.6288 23.1066 86.6074 23.3306 86.587 23.544H72.7501V20.632H83.9906L82.0908 21.496C82.0908 20.6 81.911 19.8214 81.5525 19.16C81.1929 18.4986 80.6976 17.9866 80.0644 17.624C79.4311 17.24 78.6915 17.048 77.8479 17.048C77.0032 17.048 76.2535 17.24 75.5998 17.624C74.9666 17.9866 74.4701 18.5094 74.1116 19.192C73.752 19.8534 73.5734 20.6426 73.5734 21.56V22.328C73.5734 23.2666 73.7735 24.0986 74.175 24.824C74.5968 25.528 75.1769 26.072 75.9165 26.456C76.6764 26.8186 77.5629 27 78.5762 27C79.4831 27 80.2747 26.8614 80.9509 26.584C81.6475 26.3066 82.2808 25.8906 82.8507 25.336L85.4788 28.216C84.6974 29.112 83.7158 29.8054 82.5341 30.296C81.3512 30.7654 79.9897 31 78.4495 31ZM98.2029 31C96.3665 31 94.7302 30.6266 93.2951 29.88C91.859 29.112 90.7304 28.056 89.9071 26.712C89.1043 25.368 88.7039 23.8426 88.7039 22.136C88.7039 20.408 89.1043 18.8826 89.9071 17.56C90.7304 16.216 91.859 15.1706 93.2951 14.424C94.7302 13.656 96.3665 13.272 98.2029 13.272C99.9964 13.272 101.559 13.656 102.889 14.424C104.219 15.1706 105.201 16.248 105.834 17.656L102.003 19.736C101.559 18.9254 101 18.328 100.324 17.944C99.6696 17.56 98.9516 17.368 98.1713 17.368C97.3265 17.368 96.5666 17.56 95.8915 17.944C95.2153 18.328 94.677 18.872 94.2767 19.576C93.8967 20.28 93.7067 21.1334 93.7067 22.136C93.7067 23.1386 93.8967 23.992 94.2767 24.696C94.677 25.4 95.2153 25.944 95.8915 26.328C96.5666 26.712 97.3265 26.904 98.1713 26.904C98.9516 26.904 99.6696 26.7226 100.324 26.36C101 25.976 101.559 25.368 102.003 24.536L105.834 26.648C105.201 28.0346 104.219 29.112 102.889 29.88C101.559 30.6266 99.9964 31 98.2029 31ZM118.939 13.272C120.289 13.272 121.492 13.5494 122.549 14.104C123.625 14.6374 124.469 15.4694 125.082 16.6C125.694 17.7094 126 19.1386 126 20.888V30.744H121.06V21.656C121.06 20.2694 120.754 19.2454 120.142 18.584C119.551 17.9226 118.706 17.592 117.609 17.592C116.828 17.592 116.121 17.7626 115.488 18.104C114.875 18.424 114.39 18.9254 114.031 19.608C113.693 20.2906 113.525 21.1654 113.525 22.232V30.744H108.585V7H113.525V18.296L112.416 16.856C113.028 15.704 113.905 14.8186 115.044 14.2C116.184 13.5814 117.483 13.272 118.939 13.272Z" fill="#090A0C" fill-opacity="0.93"/>
<path d="M137.631 31H129.896V9.18182H137.695C139.889 9.18182 141.778 9.61861 143.362 10.4922C144.946 11.3587 146.164 12.6051 147.016 14.2315C147.876 15.858 148.305 17.804 148.305 20.0696C148.305 22.3423 147.876 24.2955 147.016 25.929C146.164 27.5625 144.939 28.8161 143.341 29.6896C141.75 30.5632 139.847 31 137.631 31ZM134.509 27.0476H137.439C138.803 27.0476 139.95 26.8061 140.88 26.3232C141.817 25.8331 142.521 25.0767 142.989 24.054C143.465 23.0241 143.703 21.696 143.703 20.0696C143.703 18.4574 143.465 17.1399 142.989 16.1172C142.521 15.0945 141.821 14.3416 140.891 13.8587C139.96 13.3757 138.813 13.1342 137.45 13.1342H134.509V27.0476ZM151.456 31V16.2727H155.541V31H151.456ZM153.508 14.3743C152.901 14.3743 152.38 14.1729 151.945 13.7702C151.517 13.3611 151.303 12.8722 151.303 12.3033C151.303 11.7408 151.517 11.2582 151.945 10.8555C152.38 10.4464 152.901 10.2418 153.508 10.2418C154.115 10.2418 154.633 10.4464 155.061 10.8555C155.496 11.2582 155.713 11.7408 155.713 12.3033C155.713 12.8722 155.496 13.3611 155.061 13.7702C154.633 14.1729 154.115 14.3743 153.508 14.3743ZM165.448 36.8295C164.124 36.8295 162.99 36.6474 162.044 36.283C161.104 35.9251 160.356 35.4361 159.8 34.8161C159.244 34.196 158.883 33.4993 158.717 32.7259L162.494 32.2177C162.609 32.5117 162.792 32.7866 163.041 33.0423C163.29 33.2979 163.619 33.5025 164.028 33.6559C164.444 33.8157 164.949 33.8956 165.543 33.8956C166.432 33.8956 167.164 33.6783 167.739 33.2436C168.321 32.8153 168.612 32.0962 168.612 31.0863V28.392H168.439C168.26 28.8011 167.992 29.1879 167.634 29.5522C167.276 29.9165 166.815 30.2138 166.253 30.4439C165.69 30.674 165.019 30.7891 164.239 30.7891C163.134 30.7891 162.127 30.5334 161.219 30.022C160.318 29.5043 159.599 28.7148 159.062 27.6538C158.531 26.5863 158.266 25.2376 158.266 23.6076C158.266 21.9393 158.538 20.5458 159.081 19.4272C159.624 18.3086 160.347 17.4712 161.248 16.9151C162.156 16.359 163.15 16.081 164.23 16.081C165.054 16.081 165.745 16.2216 166.301 16.5028C166.857 16.7777 167.304 17.1229 167.643 17.5384C167.988 17.9474 168.254 18.3501 168.439 18.7464H168.592V16.2727H172.648V31.1438C172.648 32.3967 172.341 33.445 171.728 34.2887C171.114 35.1325 170.264 35.7653 169.177 36.1871C168.097 36.6154 166.854 36.8295 165.448 36.8295ZM165.534 27.7209C166.192 27.7209 166.748 27.5579 167.202 27.2319C167.662 26.8995 168.014 26.4265 168.257 25.8129C168.506 25.1928 168.631 24.4513 168.631 23.5884C168.631 22.7255 168.509 21.9776 168.266 21.3448C168.024 20.7056 167.672 20.2102 167.212 19.8587C166.752 19.5071 166.192 19.3313 165.534 19.3313C164.863 19.3313 164.297 19.5135 163.837 19.8778C163.377 20.2358 163.028 20.7344 162.792 21.3736C162.555 22.0128 162.437 22.7511 162.437 23.5884C162.437 24.4386 162.555 25.1737 162.792 25.7937C163.035 26.4073 163.383 26.8835 163.837 27.2223C164.297 27.5547 164.863 27.7209 165.534 27.7209ZM175.899 31V16.2727H179.983V31H175.899ZM177.95 14.3743C177.343 14.3743 176.822 14.1729 176.388 13.7702C175.959 13.3611 175.745 12.8722 175.745 12.3033C175.745 11.7408 175.959 11.2582 176.388 10.8555C176.822 10.4464 177.343 10.2418 177.95 10.2418C178.558 10.2418 179.075 10.4464 179.504 10.8555C179.938 11.2582 180.156 11.7408 180.156 12.3033C180.156 12.8722 179.938 13.3611 179.504 13.7702C179.075 14.1729 178.558 14.3743 177.95 14.3743Z" fill="#256AD7"/>
<defs>
<linearGradient id="paint0_linear_1_16" x1="29.9129" y1="32.0623" x2="37.0951" y2="39.0568" gradientUnits="userSpaceOnUse">
<stop offset="0.25" stop-color="#5F2DEE"/>
<stop offset="1" stop-color="#D6FA52"/>
</linearGradient>
<linearGradient id="paint1_linear_1_16" x1="0.672713" y1="3.3672" x2="7.85497" y2="10.3622" gradientUnits="userSpaceOnUse">
<stop offset="0.25" stop-color="#5F2DEE"/>
<stop offset="1" stop-color="#D6FA52"/>
</linearGradient>
<linearGradient id="paint2_linear_1_16" x1="29.6724" y1="3.20733" x2="36.8568" y2="10.1992" gradientUnits="userSpaceOnUse">
<stop offset="0.25" stop-color="#5F2DEE"/>
<stop offset="1" stop-color="#D6FA52"/>
</linearGradient>
<linearGradient id="paint3_linear_1_16" x1="1.71425" y1="21.8189" x2="18.5177" y2="38.1818" gradientUnits="userSpaceOnUse">
<stop offset="0.25" stop-color="#5F2DEE"/>
<stop offset="1" stop-color="#D6FA52"/>
</linearGradient>
<linearGradient id="paint4_linear_1_16" x1="16.245" y1="21.8189" x2="33.0484" y2="38.1769" gradientUnits="userSpaceOnUse">
<stop offset="0.25" stop-color="#5F2DEE"/>
<stop offset="1" stop-color="#D6FA52"/>
</linearGradient>
<linearGradient id="paint5_linear_1_16" x1="1.71781" y1="7.29232" x2="18.5189" y2="23.6516" gradientUnits="userSpaceOnUse">
<stop offset="0.25" stop-color="#5F2DEE"/>
<stop offset="1" stop-color="#D6FA52"/>
</linearGradient>
</defs>
</svg>
